# xmcd CD database file
#
# Track frame offsets:
#	150
#	32218
#	63953
#	98330
#	126245
#	154426
#	183766
#	212255
#	253874
#	283891
#
# Disc length: 4132 seconds
#
# Revision: 0
# Processed by: cddbd v1.5.2PL0 Copyright (c) Steve Scherf et al.
# Submitted via: CDex 1.51
#
DISCID=8910220a
DTITLE=Kenny Barron - The Traveler
DYEAR=2008
DGENRE=Jazz
TTITLE0=The Traveler
TTITLE1=Clouds
TTITLE2=Speed Trap
TTITLE3=Um Beijo
TTITLE4=The First Year
TTITLE5=Illusion
TTITLE6=Duet
TTITLE7=Phantoms
TTITLE8=Calypso
TTITLE9=Memories of You
EXTD=YEAR: 2008
EXTT0=
EXTT1=
EXTT2=
EXTT3=
EXTT4=
EXTT5=
EXTT6=
EXTT7=
EXTT8=
EXTT9=
PLAYORDER=
